# AST/ASF file generated using VICON BodyLanguage
# -----------------------------------------------
:version 1.10
:name VICON
:units
  mass 1.0
  length 0.45
  angle deg
:documentation
   .ast/.asf automatically generated from VICON data using
   VICON BodyBuilder and BodyLanguage model FoxedUp or BRILLIANT.MOD
:root
   order TX TY TZ RX RY RZ
   axis XYZ
   position 0 0 0  
   orientation 0 0 0 
:bonedata
  begin
     id 1 
     name lhipjoint
     direction 0.561145 -0.797705 0.220866 
     length 2.46425 
     axis 0 0 0  XYZ
  end
  begin
     id 2 
     name lfemur
     direction 0.34202 -0.939693 0  
     length 7.95556  
     axis 0 0 20  XYZ
    dof rx ry rz
    limits (-160.0 20.0)
           (-70.0 70.0)
           (-60.0 70.0)
  end
  begin
     id 3 
     name ltibia
     direction 0.34202 -0.939693 0   
     length 7.9832   
     axis 0 0 20   XYZ
    dof rx
    limits (-10.0 170.0)
  end
  begin
     id 4 
     name lfoot
     direction 0.0723927 -0.198897 0.977343   
     length 2.23085   
     axis -90 7.62852e-016 20   XYZ
    dof rx rz
    limits (-45.0 90.0)
           (-70.0 20.0)
  end
  begin
     id 5 
     name ltoes
     direction 1.53826e-011 -4.21988e-011 1   
     length 1.12127   
     axis -90 7.62852e-016 20   XYZ
    dof rx
    limits (-90.0 20.0)
  end
  begin
     id 6 
     name rhipjoint
     direction -0.610499 -0.763299 0.21134   
     length 2.57533  
     axis 0 0 0  XYZ 
  end
  begin
     id 7 
     name rfemur
     direction -0.34202 -0.939693 0   
     length 8.65257   
     axis 0 0 -20   XYZ
    dof rx ry rz
    limits (-160.0 20.0)
           (-70.0 70.0)
           (-70.0 60.0)
  end
  begin
     id 8 
     name rtibia
     direction -0.342021 -0.939692 0   
     length 7.37807   
     axis 0 0 -20   XYZ
    dof rx
    limits (-10.0 170.0)
 end
 begin
     id 9 
     name rfoot
     direction -0.0239304 -0.0543852 0.998233   
     length 1.87018  
     axis -90 -7.62852e-016 -20   XYZ
    dof rx rz
    limits (-45.0 90.0)
           (-20.0 70.0)
  end
  begin
     id 10 
     name rtoes
     direction -1.53584e-011 -4.2242e-011 1   
     length 0.951568   
     axis -90 -7.62852e-016 -20   XYZ
    dof rx
    limits (-90.0 20.0)
  end
  begin
     id 11 
     name lowerback
     direction 0.00322089 0.999033 0.0438587   
     length 2.07568   
     axis 0 0 0   XYZ
    dof rx ry rz
    limits (-20.0 45.0)
           (-30.0 30.0)
           (-30.0 30.0)
  end
  begin
     id 12 
     name upperback
     direction -0.00321932 0.999732 -0.0229403   
     length 2.06253   
     axis 0 0 0   XYZ
    dof rx ry rz
    limits (-20.0 45.0)
           (-30.0 30.0)
           (-30.0 30.0)
  end
  begin
     id 13 
     name thorax
     direction -0.00537537 0.998955 -0.0453918   
     length 2.06975   
     axis 0 0 0   XYZ
    dof rx ry rz
    limits (-20.0 45.0)
           (-30.0 30.0)
           (-30.0 30.0)
  end
  begin
     id 14 
     name lowerneck
     direction -0.00013604 0.994111 0.108363   
     length 1.50836   
     axis 0 0 0   XYZ
    dof rx ry rz
    limits (-20.0 45.0)
           (-30.0 30.0)
           (-30.0 30.0)
  end
  begin
     id 15 
     name upperneck
     direction 0.0397262 0.983859 -0.174482   
     length 1.53037   
     axis 0 0 0   XYZ
    dof rx ry rz
    limits (-20.0 45.0)
           (-30.0 30.0)
           (-30.0 30.0)
  end
  begin
     id 16
     name head
     direction 0.0109991 0.997082 -0.0755378  
     length 1.56928  
     axis 0 0 0   XYZ
    dof rx ry rz
    limits (-20.0 45.0)
           (-30.0 30.0)
           (-30.0 30.0)
  end
  begin
     id 17 
     name lclavicle
     direction 0.964749 0.254 -0.068874  
     length 3.26503  
     axis 0 0 0   XYZ
    dof ry rz
    limits (-20.0 10.0)
           (0.0 20.0)
  end
  begin
     id 18 
     name lhumerus
     direction 1 -4.48941e-011 -2.05079e-027   
     length 5.68236   
     axis 180 -30 -90   XYZ
    dof rx ry rz
    limits (-60.0 90.0)
           (-90.0 90.0)
           (-90.0 90.0)
  end
  begin
     id 19
     name lradius
     direction 1 -4.48956e-011 6.2882e-027   
     length 3.17112   
     axis 180 -30 -90   XYZ
    dof rx
    limits (-10.0 170.0)
  end
  begin
     id 20
     name lwrist
     direction 1 -4.49014e-011 1.73219e-026   
     length 1.58556   
     axis -1.04724e-014 90 90   XYZ
    dof ry
    limits (-180.0 0.0)
 end
  begin
     id 21 
     name lhand
     direction 1 -4.49312e-011 3.46438e-026   
     length 0.632691   
     axis -2.21057e-014 90 90   XYZ
    dof rx rz
    limits (-90.0 90.0)
           (-45.0 45.0)
  end
  begin
     id 22 
     name lfingers
     direction 1 -4.48894e-011 6.92876e-026   
     length 0.510091   
     axis -4.42114e-014 90 90   XYZ
    dof rx
    limits (0.0 90.0)
  end
  begin
     id 23
     name lthumb
     direction 0.707107 -6.34705e-011 0.707107   
     length 0.732392   
     axis -90 45 2.85299e-015   XYZ
    dof rx rz
    limits (-45.0 45.0)
           (-45.0 45.0)
  end
  begin
     id 24 
     name rclavicle
     direction -0.954374 0.280496 -0.102435   
     length 3.25419  
     axis 0 0 0   XYZ 
    dof ry rz
    limits (-10.0 20.0)
           (-20.0 0.0)
  end
  begin
     id 25 
     name rhumerus
     direction -1 -4.48994e-011 -1.07204e-017  
     length 5.8712   
     axis 180 30 90   XYZ
    dof rx ry rz
    limits (-90.0 60.0)
           (-90.0 90.0)
           (-90.0 90.0)
  end
  begin
     id 26 
     name rradius
     direction -1 -4.48972e-011 5.89292e-027   
     length 3.37589   
     axis 180 30 90   XYZ
    dof rx
    limits (-10.0 170.0)
  end
  begin
     id 27 
     name rwrist
     direction -1 -4.48942e-011 1.73219e-026   
     length 1.68794   
     axis -1.04724e-014 -90 -90   XYZ
    dof ry
    limits (-180.0 0.0)
  end
  begin
     id 28
     name rhand
     direction -1 -4.48514e-011 3.46438e-026   
     length 0.603257   
     axis -2.21057e-014 -90 -90   XYZ
    dof rx rz
    limits (-90.0 90.0)
           (-45.0 45.0)
  end
  begin
     id 29
     name rfingers
     direction -1 -4.50028e-011 6.92876e-026   
     length 0.486362   
     axis -4.42114e-014 -90 -90   XYZ
    dof rx
    limits (0.0 90.0)
  end
  begin
     id 30
     name rthumb
     direction -0.707107 -6.34926e-011 0.707107   
     length 0.698321   
     axis -90 -45 -2.85299e-015   XYZ
    dof rx rz
    limits (-45.0 45.0)
           (-45.0 45.0)
  end
:hierarchy
  begin
    root lhipjoint rhipjoint lowerback
    lhipjoint lfemur
    lfemur ltibia
    ltibia lfoot
    lfoot ltoes
    rhipjoint rfemur
    rfemur rtibia
    rtibia rfoot
    rfoot rtoes
    lowerback upperback
    upperback thorax
    thorax lowerneck lclavicle rclavicle
    lowerneck upperneck
    upperneck head
    lclavicle lhumerus
    lhumerus lradius
    lradius lwrist
    lwrist lhand lthumb
    lhand lfingers
    rclavicle rhumerus
    rhumerus rradius
    rradius rwrist
    rwrist rhand rthumb
    rhand rfingers
  end

#!OML:ASF I:\Segmentation\Patient Classification 1\Patient 1\Session 1\Patient1.ASF
:FULLY-SPECIFIED
:DEGREES
3149
root 31.1151 17.8539 -3.30802 -166.486 -395.04 -1261.53
lowerback -14.0628 0.85206 -1.00613
upperback 0.747699 1.12889 1.45603
thorax 8.66501 0.441581 2.36699
lowerneck -13.208 10.9146 7.19026
upperneck 20.4576 15.956 -12.1656
head 10.3221 6.48295 -3.26768
rclavicle 5.64548e-014 8.74653e-015
rhumerus -36.0431 -12.9585 -68.8581
rradius 37.4733
rwrist 10.5806
rhand -16.5259 30.9696
rfingers 7.12502
rthumb 9.69277 1.21262
lclavicle 5.64548e-014 8.74653e-015
lhumerus -24.8139 -6.4078 83.2862
lradius 24.2719
lwrist 13.7405
lhand -15.8243 38.087
lfingers 7.12502
lthumb 10.3697 67.8113
rfemur -39.5606 20.5584 5.74971
rtibia 38.7936
rfoot -17.9373 16.3962
rtoes -69.4876
lfemur -23.5181 -19.1129 -17.8617
ltibia 40.2828
lfoot -14.0311 -19.436
ltoes 0.988849
3150
root 31.1443 17.8665 -3.37027 -166.324 -395.768 -1261.62
lowerback -14.0573 0.827195 -1.28595
upperback 0.704489 1.12198 1.65628
thorax 8.60621 0.420095 2.73817
lowerneck -13.2975 10.8064 6.95178
upperneck 20.4933 15.8591 -12.1724
head 10.3214 6.41312 -3.24578
rclavicle -2.08724e-014 3.97569e-015
rhumerus -35.9166 -12.66 -68.7638
rradius 37.2268
rwrist 10.5713
rhand -16.0829 30.9222
rfingers 7.12502
rthumb 10.1202 1.18557
lclavicle -2.08724e-014 3.97569e-015
lhumerus -25.1925 -6.03654 83.3431
lradius 24.3493
lwrist 13.8429
lhand -16.2689 37.916
lfingers 7.12502
lthumb 9.94069 67.6613
rfemur -39.3977 20.5697 5.84817
rtibia 38.735
rfoot -17.541 16.0265
rtoes -69.2899
lfemur -23.4825 -18.7948 -17.8961
ltibia 40.2926
lfoot -14.459 -18.5654
ltoes -0.743387
3151
root 31.1722 17.8822 -3.42582 -166.215 -396.643 -1261.53
lowerback -14.0537 0.777906 -1.32532
upperback 0.615163 1.03834 1.87
thorax 8.50745 0.372165 2.97024
lowerneck -13.2838 10.7033 6.82871
upperneck 20.4969 15.7595 -12.2544
head 10.3069 6.34836 -3.27298
rclavicle -3.3197e-014 1.51076e-014
rhumerus -35.8226 -12.4456 -68.6913
rradius 36.9488
rwrist 10.7137
rhand -16.033 30.9573
rfingers 7.12502
rthumb 10.1683 1.22302
lclavicle -3.3197e-014 1.51076e-014
lhumerus -25.6344 -5.37273 83.3098
lradius 24.5072
lwrist 13.7059
lhand -16.3638 37.6781
lfingers 7.12502
lthumb 9.84922 67.4278
rfemur -39.2236 20.4745 6.13976
rtibia 38.6801
rfoot -17.421 15.3478
rtoes -69.2679
lfemur -23.5735 -18.5756 -17.7192
ltibia 40.3391
lfoot -15.025 -17.4785
ltoes -3.42543
3152
root 31.2038 17.9015 -3.48388 -165.927 -397.622 -1261.68
lowerback -14.1018 0.691549 -1.43948
upperback 0.557404 0.93735 1.91539
thorax 8.47576 0.317404 3.06271
lowerneck -13.4999 10.6194 6.68056
upperneck 20.6495 15.6538 -12.0986
head 10.3634 6.29117 -3.20364
rclavicle 2.82274e-014 -4.77083e-015
rhumerus -35.7218 -12.3697 -68.8099
rradius 36.7771
rwrist 10.8227
rhand -16.1787 30.7886
rfingers 7.12502
rthumb 10.0277 1.04751
lclavicle 2.82274e-014 -4.77083e-015
lhumerus -25.7702 -5.15233 83.1427
lradius 24.5213
lwrist 13.875
lhand -16.3488 37.416
lfingers 7.12502
lthumb 9.86363 67.165
rfemur -39.0363 20.2706 6.25159
rtibia 38.6505
rfoot -17.712 14.2762
rtoes -69.5213
lfemur -23.7467 -18.3816 -17.6992
ltibia 40.4013
lfoot -15.3865 -16.5039
ltoes -5.34432
3153
root 31.2367 17.9144 -3.54105 -165.712 -398.574 -1261.83
lowerback -14.0635 0.65905 -1.49346
upperback 0.562514 0.903663 1.92089
thorax 8.46083 0.299341 3.09148
lowerneck -13.7697 10.4727 6.42397
upperneck 20.6423 15.466 -11.9282
head 10.3535 6.19809 -3.12211
rclavicle -8.44835e-015 -1.03368e-014
rhumerus -35.5614 -12.3489 -68.9311
rradius 36.6279
rwrist 10.7963
rhand -15.8173 30.5852
rfingers 7.12502
rthumb 10.3764 0.861177
lclavicle -8.44835e-015 -1.03368e-014
lhumerus -25.5873 -4.96086 83.0073
lradius 24.2369
lwrist 13.9217
lhand -16.3234 37.008
lfingers 7.12502
lthumb 9.88814 66.7558
rfemur -38.7791 19.9819 6.44156
rtibia 38.6208
rfoot -18.0751 13.2437
rtoes -69.81
lfemur -23.8447 -18.0961 -17.7094
ltibia 40.491
lfoot -15.2741 -15.9042
ltoes -4.93469
3154
root 31.2693 17.9251 -3.59623 -165.491 -399.516 -1261.97
lowerback -14.0757 0.601003 -1.53244
upperback 0.603261 0.831734 1.94991
thorax 8.51574 0.261373 3.1311
lowerneck -13.9747 10.3398 6.34812
upperneck 20.4346 15.3168 -12.0945
head 10.3121 6.11102 -3.1817
rclavicle -8.06072e-014 -1.03368e-014
rhumerus -35.3449 -12.2355 -69.0435
rradius 36.5504
rwrist 10.9076
rhand -15.2236 30.506
rfingers 7.12502
rthumb 10.9491 0.811503
lclavicle -8.06072e-014 -1.03368e-014
lhumerus -25.4617 -4.44409 82.8375
lradius 24.1009
lwrist 13.6157
lhand -16.0897 37.04
lfingers 7.12502
lthumb 10.1136 66.777
rfemur -38.5476 19.5139 6.71458
rtibia 38.5925
rfoot -18.3176 12.442
rtoes -69.9852
lfemur -23.9669 -17.7236 -17.7202
ltibia 40.628
lfoot -15.1602 -15.2884
ltoes -4.38808
